#!OML:ASF X:\für Bonn\!DataBase\2005_08_12_Daniel\c3d\Daniel.ASF
:FULLY-SPECIFIED
:DEGREES
103
root -4.50854 17.2209 0.155757 500.331 -77.6999 -515.141
lowerback 22.454 -8.97755 -0.968756
upperback 4.87224 -12.3566 0.623848
thorax -6.59577 -6.1713 4.58165
lowerneck 3.76255 9.16077 1.34279
upperneck 6.67382 12.3157 -6.32392
head 2.0085 5.97284 -2.12365
rclavicle 4.7758e-014 -1.11319e-014
rhumerus -39.0963 3.88907 -78.2474
rradius 36.556
rwrist 13.5611
rhand -29.4893 28.9859
rfingers 7.12502
rthumb -2.82428 -0.975121
lclavicle 4.7758e-014 -1.11319e-014
lhumerus -10.4146 -3.73877 74.5939
lradius 106.722
lwrist 23.5396
lhand -12.5607 -7.53977
lfingers 7.12502
lthumb 13.5166 22.0016
rfemur -15.9109 3.28042 18.0298
rtibia 55.0791
rfoot -0.700722 -0.471345
rtoes -7.59991
lfemur 5.02789 -9.9557 -23.1196
ltibia 35.1077
lfoot -32.4091 12.8707
ltoes 6.46035
104
root -4.52145 17.2219 0.131685 500.912 -77.8654 -515.528
lowerback 22.1922 -8.76401 -0.886088
upperback 4.66184 -12.0372 0.641166
thorax -6.72698 -6.00004 4.45491
lowerneck 3.61864 9.0312 1.29227
upperneck 6.79345 12.1501 -6.31438
head 2.06068 5.88367 -2.10602
rclavicle 1.69706e-013 -2.80286e-014
rhumerus -38.7171 3.54891 -78.4184
rradius 36.1891
rwrist 13.3773
rhand -29.0061 28.6724
rfingers 7.12502
rthumb -2.35764 -1.29429
lclavicle 1.69706e-013 -2.80286e-014
lhumerus -11.9628 -4.2037 75.0966
lradius 105.534
lwrist 23.3588
lhand -12.5874 -7.22636
lfingers 7.12502
lthumb 13.4909 22.3167
rfemur -14.8768 3.74748 18.0069
rtibia 53.4883
rfoot -0.822737 -0.797951
rtoes -7.3251
lfemur 4.86888 -10.1212 -23.2406
ltibia 35.1143
lfoot -32.4935 12.9517
ltoes 6.41443
105
root -4.5339 17.2221 0.106969 501.575 -78.0397 -515.991
lowerback 21.9388 -8.53828 -0.826222
upperback 4.4454 -11.7075 0.654166
thorax -6.86438 -5.82368 4.33519
lowerneck 3.51082 8.8846 1.28548
upperneck 6.90749 11.9637 -6.35607
head 2.11099 5.78474 -2.11468
rclavicle 5.01993e-014 -2.5345e-014
rhumerus -38.3615 3.19225 -78.559
rradius 35.8181
rwrist 13.1937
rhand -28.4596 28.3148
rfingers 7.12502
rthumb -1.82976 -1.65706
lclavicle 5.01993e-014 -2.5345e-014
lhumerus -13.4283 -4.61358 75.6426
lradius 104.185
lwrist 23.0916
lhand -12.5304 -7.003
lfingers 7.12502
lthumb 13.5459 22.5364
rfemur -13.9093 4.15894 17.9661
rtibia 51.9633
rfoot -1.0603 -1.16844
rtoes -7.06107
lfemur 4.69177 -10.2678 -23.3736
ltibia 35.1447
lfoot -32.5708 13.0425
ltoes 6.30202
106
root -4.54512 17.2188 0.0815902 502.251 -78.2412 -516.484
lowerback 21.7098 -8.32394 -0.802074
upperback 4.24402 -11.4029 0.664433
thorax -6.98844 -5.66094 4.24019
lowerneck 3.3986 8.75152 1.2655
upperneck 6.99785 11.7948 -6.4027
head 2.15459 5.69483 -2.12292
rclavicle 1.41355e-013 -4.59193e-014
rhumerus -37.9799 2.93025 -78.7184
rradius 35.4329
rwrist 13.0213
rhand -27.9422 27.8875
rfingers 7.12502
rthumb -1.33009 -2.08812
lclavicle 1.41355e-013 -4.59193e-014
lhumerus -14.837 -4.91679 76.2356
lradius 102.702
lwrist 22.7376
lhand -12.5099 -6.83815
lfingers 7.12502
lthumb 13.5656 22.6999
rfemur -12.9947 4.48697 17.9161
rtibia 50.5073
rfoot -1.45836 -1.52526
rtoes -7.27018
lfemur 4.50994 -10.4874 -23.5465
ltibia 35.2046
lfoot -32.6757 13.1428
ltoes 6.24734
107
root -4.55526 17.215 0.0556066 502.885 -78.4354 -516.916
lowerback 21.4772 -8.11482 -0.762125
upperback 4.03339 -11.1014 0.675137
thorax -7.12222 -5.49982 4.13891
lowerneck 3.33976 8.61731 1.25071
upperneck 7.07149 11.6225 -6.45665
head 2.18416 5.60428 -2.13751
rclavicle 8.87667e-014 -1.03368e-014
rhumerus -37.6561 2.68886 -78.8662
rradius 35.0941
rwrist 12.8722
rhand -27.4061 27.3605
rfingers 7.12502
rthumb -0.81229 -2.61767
lclavicle 8.87667e-014 -1.03368e-014
lhumerus -16.2296 -5.15985 76.8671
lradius 101.099
lwrist 22.2514
lhand -12.5992 -6.64628
lfingers 7.12502
lthumb 13.4795 22.8975
rfemur -12.1488 4.75118 17.8848
rtibia 49.1028
rfoot -2.00013 -1.86641
rtoes -7.77951
lfemur 4.29241 -10.6568 -23.6677
ltibia 35.2843
lfoot -32.7822 13.1852
ltoes 6.11668
108
root -4.56556 17.211 0.0292918 503.522 -78.6344 -517.373
lowerback 21.2535 -7.90193 -0.72193
upperback 3.84389 -10.7978 0.669486
thorax -7.23966 -5.33985 4.01919
lowerneck 3.29683 8.47474 1.27095
upperneck 7.12032 11.4395 -6.51618
head 2.20494 5.51058 -2.16129
rclavicle -1.71703e-013 6.36111e-014
rhumerus -37.3394 2.34837 -79.0087
rradius 34.7528
rwrist 12.8954
rhand -26.8627 26.7511
rfingers 7.12502
rthumb -0.287525 -3.22845
lclavicle -1.71703e-013 6.36111e-014
lhumerus -17.5127 -5.3299 77.5179
lradius 99.3465
lwrist 21.6954
lhand -12.5805 -6.42245
lfingers 7.12502
lthumb 13.4976 23.1201
rfemur -11.3182 4.96187 17.8597
rtibia 47.7472
rfoot -2.66855 -2.17966
rtoes -8.36993
lfemur 4.0889 -10.8292 -23.8014
ltibia 35.3767
lfoot -32.8554 13.2729
ltoes 5.97311
109
root -4.57527 17.2075 0.00246209 504.176 -78.8407 -517.846
lowerback 21.0294 -7.69482 -0.680083
upperback 3.65936 -10.503 0.649199
thorax -7.35276 -5.18519 3.88516
lowerneck 3.28159 8.32646 1.33191
upperneck 7.16009 11.2503 -6.61693
head 2.2232 5.41462 -2.207
rclavicle 5.10318e-015 -2.49475e-014
rhumerus -37.0301 2.0567 -79.1833
rradius 34.4121
rwrist 12.9419
rhand -26.3788 26.1
rfingers 7.12502
rthumb 0.179909 -3.87969
lclavicle 5.10318e-015 -2.49475e-014
lhumerus -18.7503 -5.44884 78.1912
lradius 97.4761
lwrist 21.0021
lhand -12.68 -6.17877
lfingers 7.12502
lthumb 13.4017 23.3702
rfemur -10.5328 5.12334 17.8317
rtibia 46.4349
rfoot -3.38839 -2.47208
rtoes -8.75257
lfemur 3.89727 -11.0274 -23.9406
ltibia 35.4599
lfoot -32.9524 13.3308
ltoes 5.91257
110
root -4.58425 17.2039 -0.0248541 504.863 -79.0566 -518.366
lowerback 20.8288 -7.48941 -0.666623
upperback 3.48532 -10.218 0.631626
thorax -7.45927 -5.03592 3.77424
lowerneck 3.26932 8.19392 1.35469
upperneck 7.18217 11.079 -6.67674
head 2.23017 5.3282 -2.23314
rclavicle -1.07598e-013 1.31198e-014
rhumerus -36.749 1.8518 -79.383
rradius 34.1354
rwrist 13.0066
rhand -25.9163 25.3765
rfingers 7.12502
rthumb 0.62662 -4.60235
lclavicle -1.07598e-013 1.31198e-014
lhumerus -19.9108 -5.48898 78.8961
lradius 95.5056
lwrist 20.2017
lhand -12.8445 -5.77082
lfingers 7.12502
lthumb 13.2431 23.7885
rfemur -9.77523 5.23005 17.7912
rtibia 45.1651
rfoot -4.18447 -2.72489
rtoes -9.07697
lfemur 3.72069 -11.2204 -24.0859
ltibia 35.5286
lfoot -33.0324 13.3845
ltoes 5.84873
111
root -4.59281 17.2011 -0.0528639 505.582 -79.3008 -518.916
lowerback 20.6147 -7.29707 -0.678385
upperback 3.3182 -9.95627 0.615802
thorax -7.54422 -4.89886 3.68211
lowerneck 3.2957 8.0608 1.37561
upperneck 7.18015 10.9061 -6.77712
head 2.22496 5.24113 -2.27437
rclavicle 4.6059e-014 -7.05686e-015
rhumerus -36.4492 1.64907 -79.5739
rradius 33.8613
rwrist 13.1545
rhand -25.4651 24.68
rfingers 7.12502
rthumb 1.06239 -5.29706
lclavicle 4.6059e-014 -7.05686e-015
lhumerus -21.0449 -5.43198 79.6037
lradius 93.4625
lwrist 19.2852
lhand -13.0148 -5.31957
lfingers 7.12502
lthumb 13.0789 24.2503
rfemur -9.05569 5.27365 17.7279
rtibia 43.9403
rfoot -4.97269 -2.90379
rtoes -9.18064
lfemur 3.55048 -11.4547 -24.2579
ltibia 35.5769
lfoot -33.096 13.4905
ltoes 5.72414
112
root -4.60219 17.1996 -0.0811459 506.357 -79.5423 -519.517
lowerback 20.3777 -7.10448 -0.688735
upperback 3.15979 -9.69527 0.587318
thorax -7.60912 -4.76365 3.57246
lowerneck 3.38678 7.92387 1.45915
upperneck 7.12104 10.7283 -6.9247
head 2.19631 5.15539 -2.34544
rclavicle -1.14783e-013 1.27222e-014
rhumerus -36.1643 1.5181 -79.8083
rradius 33.597
rwrist 13.2149
rhand -25.0138 24.0373
rfingers 7.12502
rthumb 1.49823 -5.9372
lclavicle -1.14783e-013 1.27222e-014
lhumerus -22.1624 -5.31837 80.3208
lradius 91.4103
lwrist 18.239
lhand -13.2418 -4.72127
lfingers 7.12502
lthumb 12.8601 24.8625
rfemur -8.36534 5.30091 17.6604
rtibia 42.7375
rfoot -5.76946 -3.05528
rtoes -9.26908
lfemur 3.39535 -11.7077 -24.4376
ltibia 35.6069
lfoot -33.1768 13.5921
ltoes 5.67648
113
root -4.61062 17.1976 -0.110129 507.145 -79.7847 -520.145
lowerback 20.163 -6.91478 -0.681565
upperback 3.0163 -9.43702 0.535933
thorax -7.67532 -4.63111 3.4324
lowerneck 3.39332 7.77982 1.52971
upperneck 7.13013 10.543 -7.00971
head 2.19906 5.06363 -2.38949
rclavicle 9.32238e-014 -2.49972e-014
rhumerus -35.8615 1.32961 -80.0463
rradius 33.3083
rwrist 13.3817
rhand -24.6151 23.4838
rfingers 7.12502
rthumb 1.88334 -6.48759
lclavicle 9.32238e-014 -2.49972e-014
lhumerus -23.2788 -5.1639 80.9983
lradius 89.3681
lwrist 17.1197
lhand -13.4856 -4.09206
lfingers 7.12502
lthumb 12.6251 25.5064
rfemur -7.68055 5.30051 17.5882
rtibia 41.5598
rfoot -6.55951 -3.16358
rtoes -9.25117
lfemur 3.26539 -11.9744 -24.6203
ltibia 35.6193
lfoot -33.2712 13.6877
ltoes 5.56445
